<?xml version='1.0' encoding='ascii'?>
<svg xmlns="http://www.w3.org/2000/svg" version="1.1" width="1080" height="1080">
    <g id="ViewLayer_LineSet" xmlns:inkscape="http://www.inkscape.org/namespaces/inkscape" inkscape:groupmode="lineset" inkscape:label="ViewLayer_LineSet">
        <g xmlns:inkscape="http://www.inkscape.org/namespaces/inkscape" inkscape:groupmode="layer" id="strokes" inkscape:label="strokes">
            <path fill="none" stroke-width="4.0" stroke-linecap="butt" stroke-opacity="1.0" stroke="rgb(0, 0, 0)" stroke-linejoin="bevel" d=" M 365.255, 160.853 365.255, 170.853 365.255, 180.853 365.255, 190.853 365.255, 200.853 365.255, 210.853 365.255, 220.853 365.255, 230.853 365.255, 240.853 365.255, 250.853 365.255, 260.853 365.255, 270.853 365.255, 280.853 365.255, 290.853 365.255, 293.619 365.255, 303.619 365.255, 313.619 365.255, 323.619 365.255, 326.177 365.255, 336.177 365.255, 346.177 365.255, 356.177 365.255, 366.177 365.255, 376.177 365.255, 386.177 365.255, 395.473 365.255, 405.473 365.255, 415.473 365.255, 425.473 365.255, 427.685 365.255, 437.685 365.255, 447.685 365.255, 457.685 365.255, 467.685 365.255, 477.685 365.255, 487.685 365.255, 497.327 365.255, 507.327 365.255, 517.327 365.255, 527.327 365.255, 529.193 365.255, 539.193 365.255, 549.193 365.255, 559.193 365.255, 564.201 " />
            <path fill="none" stroke-width="4.0" stroke-linecap="butt" stroke-opacity="1.0" stroke="rgb(0, 0, 0)" stroke-linejoin="bevel" d=" M 714.745, 564.201 704.745, 564.201 694.745, 564.201 684.745, 564.201 674.745, 564.201 664.745, 564.201 654.745, 564.201 644.745, 564.201 634.745, 564.201 624.745, 564.201 614.745, 564.201 604.745, 564.201 594.745, 564.201 584.745, 564.201 574.745, 564.201 564.745, 564.201 554.745, 564.201 544.745, 564.201 534.745, 564.201 524.745, 564.201 514.745, 564.201 504.745, 564.201 494.745, 564.201 484.745, 564.201 474.745, 564.201 464.745, 564.201 454.745, 564.201 444.745, 564.201 434.745, 564.201 424.745, 564.201 414.745, 564.201 404.745, 564.201 394.745, 564.201 384.745, 564.201 374.745, 564.201 365.255, 564.201 373.681, 563.034 " />
            <path fill="none" stroke-width="4.0" stroke-linecap="butt" stroke-opacity="1.0" stroke="rgb(0, 0, 0)" stroke-linejoin="bevel" d=" M 706.319, 563.034 696.319, 563.034 686.319, 563.034 676.319, 563.034 666.319, 563.034 656.319, 563.034 646.319, 563.034 636.319, 563.034 626.319, 563.034 616.319, 563.034 606.319, 563.034 596.319, 563.034 586.319, 563.034 576.319, 563.034 566.319, 563.034 556.319, 563.034 546.319, 563.034 536.319, 563.034 526.319, 563.034 516.319, 563.034 506.319, 563.034 496.319, 563.034 486.319, 563.034 476.319, 563.034 466.319, 563.034 456.319, 563.034 446.319, 563.034 436.319, 563.034 426.319, 563.034 416.319, 563.034 406.319, 563.034 396.319, 563.034 386.319, 563.034 373.681, 563.034 373.681, 553.034 373.681, 543.034 373.681, 533.034 373.681, 529.651 " />
            <path fill="none" stroke-width="4.0" stroke-linecap="butt" stroke-opacity="1.0" stroke="rgb(0, 0, 0)" stroke-linejoin="bevel" d=" M 373.681, 179.135 369.496, 170.054 365.255, 160.853 375.255, 160.853 385.255, 160.853 395.255, 160.853 405.255, 160.853 415.255, 160.853 425.255, 160.853 435.255, 160.853 445.255, 160.853 455.255, 160.853 465.255, 160.853 475.255, 160.853 485.255, 160.853 495.255, 160.853 505.255, 160.853 515.255, 160.853 525.255, 160.853 535.255, 160.853 545.255, 160.853 555.255, 160.853 565.255, 160.853 575.255, 160.853 585.255, 160.853 595.255, 160.853 605.255, 160.853 615.255, 160.853 625.255, 160.853 635.255, 160.853 645.255, 160.853 655.255, 160.853 665.255, 160.853 675.255, 160.853 685.255, 160.853 695.255, 160.853 705.255, 160.853 714.745, 160.853 " />
            <path fill="none" stroke-width="4.0" stroke-linecap="butt" stroke-opacity="1.0" stroke="rgb(0, 0, 0)" stroke-linejoin="bevel" d=" M 748.753, 575.378 748.753, 565.378 748.753, 555.378 748.753, 545.378 748.753, 535.378 748.753, 525.378 748.753, 515.378 748.753, 505.378 748.753, 495.378 748.753, 485.378 748.753, 475.378 748.753, 465.378 748.753, 455.378 748.753, 445.378 748.753, 435.378 748.753, 425.378 748.753, 415.378 748.753, 405.378 748.753, 395.378 748.753, 385.378 748.753, 375.378 748.753, 365.378 748.753, 355.378 748.753, 345.378 748.753, 335.378 748.753, 325.378 748.753, 315.378 748.753, 305.378 748.753, 295.378 748.753, 285.378 748.753, 275.378 748.753, 265.378 748.753, 255.378 748.753, 245.378 748.753, 235.378 748.753, 225.378 748.753, 215.378 748.753, 205.378 748.753, 195.378 748.753, 185.378 748.753, 175.378 748.753, 165.378 748.753, 152.340 742.061, 145.432 739.944, 144.872 730.040, 143.489 724.791, 142.756 714.791, 142.756 704.791, 142.756 694.791, 142.756 684.791, 142.756 674.791, 142.756 664.791, 142.756 654.791, 142.756 644.791, 142.756 634.791, 142.756 624.791, 142.756 614.791, 142.756 604.791, 142.756 594.791, 142.756 584.791, 142.756 574.791, 142.756 564.791, 142.756 554.791, 142.756 544.791, 142.756 534.791, 142.756 524.791, 142.756 514.791, 142.756 504.791, 142.756 494.791, 142.756 484.791, 142.756 474.791, 142.756 464.791, 142.756 454.791, 142.756 444.791, 142.756 434.791, 142.756 424.791, 142.756 414.791, 142.756 404.791, 142.756 394.791, 142.756 384.791, 142.756 374.791, 142.756 364.791, 142.756 355.209, 142.756 345.305, 144.139 340.056, 144.872 337.939, 145.432 331.247, 152.340 331.247, 162.340 331.247, 172.340 331.247, 182.340 331.247, 192.340 331.247, 202.340 331.247, 212.340 331.247, 222.340 331.247, 232.340 331.247, 242.340 331.247, 252.340 331.247, 262.340 331.247, 272.340 331.247, 282.340 331.247, 292.340 331.247, 302.340 331.247, 312.340 331.247, 322.340 331.247, 332.340 331.247, 342.340 331.247, 352.340 331.247, 362.340 331.247, 372.340 331.247, 382.340 331.247, 392.340 331.247, 402.340 331.247, 412.340 331.247, 422.340 331.247, 432.340 331.247, 442.340 331.247, 452.340 331.247, 462.340 331.247, 472.340 331.247, 482.340 331.247, 492.340 331.247, 502.340 331.247, 512.340 331.247, 522.340 331.247, 532.340 331.247, 542.340 331.247, 552.340 331.247, 562.340 331.247, 575.378 331.247, 585.378 331.247, 595.378 331.247, 605.378 331.247, 615.378 331.247, 619.235 331.247, 629.235 331.247, 639.235 331.247, 649.235 331.247, 659.235 331.247, 669.235 331.247, 679.235 331.247, 689.235 331.247, 699.235 331.247, 709.235 331.247, 719.235 331.247, 729.235 331.247, 739.235 331.247, 749.235 331.247, 759.235 331.247, 769.235 331.247, 779.235 331.247, 786.869 331.247, 796.869 331.247, 806.869 331.247, 816.869 331.247, 826.869 331.247, 827.778 337.939, 834.686 347.821, 836.218 355.209, 837.363 363.684, 837.363 373.684, 837.363 379.489, 837.363 389.489, 837.363 399.489, 837.363 409.489, 837.363 416.735, 837.363 420.737, 837.363 430.737, 837.363 440.737, 837.363 450.737, 837.363 460.737, 837.363 470.737, 837.363 480.737, 837.363 490.737, 837.363 500.737, 837.363 510.737, 837.363 520.737, 837.363 530.737, 837.363 540.737, 837.363 550.737, 837.363 560.737, 837.363 570.737, 837.363 580.737, 837.363 590.737, 837.363 600.737, 837.363 610.737, 837.363 620.737, 837.363 630.737, 837.363 640.737, 837.363 650.737, 837.363 659.263, 837.363 663.265, 837.363 673.265, 837.363 683.265, 837.363 693.265, 837.363 700.511, 837.363 710.511, 837.363 716.316, 837.363 724.791, 837.363 734.673, 835.831 742.061, 834.686 748.753, 827.778 748.753, 817.778 748.753, 807.778 748.753, 797.778 748.753, 787.778 748.753, 786.869 748.753, 776.869 748.753, 766.869 748.753, 756.869 748.753, 746.869 748.753, 736.869 748.753, 726.869 748.753, 716.869 748.753, 706.869 748.753, 696.869 748.753, 686.869 748.753, 676.869 748.753, 674.950 748.753, 664.950 748.753, 654.950 748.753, 644.950 748.753, 634.950 748.753, 624.950 748.753, 619.235 748.753, 609.235 748.753, 599.235 748.753, 589.235 748.753, 579.235 748.753, 575.378 " />
            <path fill="none" stroke-width="4.0" stroke-linecap="butt" stroke-opacity="1.0" stroke="rgb(0, 0, 0)" stroke-linejoin="bevel" d=" M 739.944, 834.798 729.999, 835.846 725.796, 836.288 716.545, 836.288 706.545, 836.288 700.739, 836.288 690.739, 836.288 680.739, 836.288 670.739, 836.288 663.039, 836.288 659.037, 836.288 649.037, 836.288 639.037, 836.288 629.037, 836.288 619.037, 836.288 609.037, 836.288 599.037, 836.288 589.037, 836.288 579.037, 836.288 569.037, 836.288 559.037, 836.288 549.037, 836.288 539.037, 836.288 529.037, 836.288 519.037, 836.288 509.037, 836.288 499.037, 836.288 489.037, 836.288 479.037, 836.288 469.037, 836.288 459.037, 836.288 449.037, 836.288 439.037, 836.288 429.037, 836.288 420.963, 836.288 416.961, 836.288 406.961, 836.288 396.961, 836.288 386.961, 836.288 379.261, 836.288 369.261, 836.288 363.455, 836.288 354.204, 836.288 344.259, 835.241 340.056, 834.798 " />
            <path fill="none" stroke-width="4.0" stroke-linecap="butt" stroke-opacity="1.0" stroke="rgb(0, 0, 0)" stroke-linejoin="bevel" d=" M 739.944, 144.872 730.006, 143.759 725.796, 143.287 715.796, 143.287 705.796, 143.287 695.796, 143.287 685.796, 143.287 675.796, 143.287 665.796, 143.287 655.796, 143.287 645.796, 143.287 635.796, 143.287 625.796, 143.287 615.796, 143.287 605.796, 143.287 595.796, 143.287 585.796, 143.287 575.796, 143.287 565.796, 143.287 555.796, 143.287 545.796, 143.287 535.796, 143.287 525.796, 143.287 515.796, 143.287 505.796, 143.287 495.796, 143.287 485.796, 143.287 475.796, 143.287 465.796, 143.287 455.796, 143.287 445.796, 143.287 435.796, 143.287 425.796, 143.287 415.796, 143.287 405.796, 143.287 395.796, 143.287 385.796, 143.287 375.796, 143.287 365.796, 143.287 354.204, 143.287 344.266, 144.400 340.056, 144.872 " />
            <path fill="none" stroke-width="4.0" stroke-linecap="butt" stroke-opacity="1.0" stroke="rgb(0, 0, 0)" stroke-linejoin="bevel" d=" M 331.247, 619.235 331.247, 629.235 331.247, 639.235 331.247, 649.235 331.248, 659.235 331.248, 669.235 331.248, 674.951 331.248, 684.951 331.248, 694.951 331.248, 704.951 331.248, 714.951 331.248, 724.951 331.247, 734.951 331.247, 744.951 331.247, 754.951 331.247, 764.951 331.247, 774.951 331.247, 784.951 331.247, 786.869 331.247, 796.869 331.247, 806.869 331.247, 816.869 331.247, 826.869 331.247, 827.778 " />
            <path fill="none" stroke-width="4.0" stroke-linecap="butt" stroke-opacity="1.0" stroke="rgb(0, 0, 0)" stroke-linejoin="bevel" d=" M 386.641, 692.666 385.898, 693.406 385.898, 703.406 385.898, 713.406 385.898, 723.406 385.898, 733.406 385.898, 743.406 385.898, 753.406 385.898, 763.406 385.898, 773.406 385.898, 779.389 395.898, 779.389 405.898, 779.389 415.898, 779.389 425.898, 779.389 435.898, 779.389 437.868, 779.389 447.868, 779.389 457.868, 779.389 467.868, 779.389 477.868, 779.389 487.868, 779.389 497.868, 779.389 507.868, 779.389 517.868, 779.389 527.868, 779.389 537.868, 779.389 547.868, 779.389 557.868, 779.389 567.868, 779.389 577.868, 779.389 587.868, 779.389 597.868, 779.389 607.868, 779.389 617.868, 779.389 625.407, 779.389 625.407, 778.595 625.407, 768.595 625.407, 758.595 625.407, 748.595 625.407, 738.595 625.407, 728.595 625.407, 718.595 625.407, 708.595 625.407, 698.595 625.407, 693.406 624.995, 692.666 " />
            <path fill="none" stroke-width="4.0" stroke-linecap="butt" stroke-opacity="1.0" stroke="rgb(0, 0, 0)" stroke-linejoin="bevel" d=" M 706.319, 179.135 710.504, 170.054 714.745, 160.853 714.745, 170.853 714.745, 180.853 714.745, 190.853 714.745, 200.853 714.745, 210.853 714.745, 220.853 714.745, 230.853 714.745, 240.853 714.745, 250.853 714.745, 260.853 714.745, 270.853 714.745, 280.853 714.745, 290.853 714.745, 293.619 714.745, 303.619 714.745, 313.619 714.745, 323.619 714.745, 326.177 714.745, 336.177 714.745, 346.177 714.745, 356.177 714.745, 366.177 714.745, 376.177 714.745, 386.177 714.745, 395.473 714.745, 405.473 714.745, 415.473 714.745, 425.473 714.745, 427.685 714.745, 437.685 714.745, 447.685 714.745, 457.685 714.745, 467.685 714.745, 477.685 714.745, 487.685 714.745, 497.327 714.745, 507.327 714.745, 517.327 714.745, 527.327 714.745, 529.193 714.745, 539.193 714.745, 549.193 714.745, 559.193 714.745, 564.201 706.319, 563.034 706.319, 553.034 706.319, 543.034 706.319, 533.034 706.319, 529.651 " />
            <path fill="none" stroke-width="4.0" stroke-linecap="butt" stroke-opacity="1.0" stroke="rgb(0, 0, 0)" stroke-linejoin="bevel" d=" M 706.319, 293.619 706.319, 283.619 706.319, 273.619 706.319, 263.619 706.319, 253.619 706.319, 243.619 706.319, 233.619 706.319, 223.619 706.319, 213.619 706.319, 203.619 706.319, 193.619 706.319, 183.619 706.319, 179.135 696.319, 179.135 686.319, 179.135 676.319, 179.135 666.319, 179.135 656.319, 179.135 646.319, 179.135 636.319, 179.135 626.319, 179.135 616.319, 179.135 606.319, 179.135 596.319, 179.135 586.319, 179.135 576.319, 179.135 566.319, 179.135 556.319, 179.135 546.319, 179.135 536.319, 179.135 526.319, 179.135 516.319, 179.135 506.319, 179.135 496.319, 179.135 486.319, 179.135 476.319, 179.135 466.319, 179.135 456.319, 179.135 446.319, 179.135 436.319, 179.135 426.319, 179.135 416.319, 179.135 406.319, 179.135 396.319, 179.135 386.319, 179.135 373.681, 179.135 373.681, 189.135 373.681, 199.135 373.681, 209.135 373.681, 219.135 373.681, 229.135 373.681, 239.135 373.681, 249.135 373.681, 259.135 373.681, 269.135 373.681, 279.135 373.681, 289.135 373.681, 293.619 " />
            <path fill="none" stroke-width="4.0" stroke-linecap="butt" stroke-opacity="1.0" stroke="rgb(0, 0, 0)" stroke-linejoin="bevel" d=" M 386.641, 692.666 396.641, 692.666 406.641, 692.666 416.641, 692.666 426.641, 692.666 436.641, 692.666 446.641, 692.666 456.641, 692.666 466.641, 692.666 476.641, 692.666 486.641, 692.666 496.641, 692.666 506.641, 692.666 516.641, 692.666 526.641, 692.666 536.641, 692.666 546.641, 692.666 556.641, 692.666 566.641, 692.666 576.641, 692.666 586.641, 692.666 596.641, 692.666 606.641, 692.666 616.641, 692.666 624.995, 692.666 " />
            <path fill="none" stroke-width="4.0" stroke-linecap="butt" stroke-opacity="1.0" stroke="rgb(0, 0, 0)" stroke-linejoin="bevel" d=" M 616.594, 702.219 614.436, 702.219 604.436, 702.219 594.436, 702.219 584.436, 702.219 574.436, 702.219 564.436, 702.219 554.436, 702.219 544.436, 702.219 534.436, 702.219 524.436, 702.219 514.436, 702.219 504.436, 702.219 494.436, 702.219 484.436, 702.219 474.436, 702.219 464.436, 702.219 454.436, 702.219 444.436, 702.219 434.436, 702.219 424.436, 702.219 414.436, 702.219 404.436, 702.219 398.805, 702.219 394.711, 702.219 394.711, 712.219 394.711, 722.219 394.711, 732.219 394.711, 742.219 394.711, 752.219 394.711, 762.219 394.711, 770.576 " />
            <path fill="none" stroke-width="4.0" stroke-linecap="butt" stroke-opacity="1.0" stroke="rgb(0, 0, 0)" stroke-linejoin="bevel" d=" M 616.594, 770.576 606.594, 770.576 596.594, 770.576 586.594, 770.576 576.594, 770.576 566.594, 770.576 556.594, 770.576 546.594, 770.576 536.594, 770.576 526.594, 770.576 516.594, 770.576 506.594, 770.576 496.594, 770.576 486.594, 770.576 476.594, 770.576 466.594, 770.576 456.594, 770.576 446.594, 770.576 436.594, 770.576 426.594, 770.576 416.594, 770.576 406.594, 770.576 394.711, 770.576 398.805, 764.079 " />
            <path fill="none" stroke-width="4.0" stroke-linecap="butt" stroke-opacity="1.0" stroke="rgb(0, 0, 0)" stroke-linejoin="bevel" d=" M 614.436, 764.079 604.436, 764.079 594.436, 764.079 584.436, 764.079 574.436, 764.079 564.436, 764.079 554.436, 764.079 544.436, 764.079 534.436, 764.079 524.436, 764.079 514.436, 764.079 504.436, 764.079 494.436, 764.079 484.436, 764.079 474.436, 764.079 464.436, 764.079 454.436, 764.079 444.436, 764.079 434.436, 764.079 424.436, 764.079 414.436, 764.079 404.436, 764.079 398.805, 764.079 398.805, 754.079 398.805, 744.079 398.805, 734.079 398.805, 724.079 398.805, 714.079 398.805, 704.079 398.805, 702.219 " />
            <path fill="none" stroke-width="4.0" stroke-linecap="butt" stroke-opacity="1.0" stroke="rgb(0, 0, 0)" stroke-linejoin="bevel" d=" M 385.898, 693.406 386.641, 693.406 396.641, 693.406 406.641, 693.406 416.641, 693.406 426.641, 693.406 436.641, 693.406 446.641, 693.406 456.641, 693.406 466.641, 693.406 476.641, 693.406 486.641, 693.406 496.641, 693.406 506.641, 693.406 516.641, 693.406 526.641, 693.406 536.641, 693.406 546.641, 693.406 556.641, 693.406 566.641, 693.406 576.641, 693.406 586.641, 693.406 596.641, 693.406 606.641, 693.406 616.641, 693.406 624.995, 693.406 625.407, 693.406 " />
            <path fill="none" stroke-width="4.0" stroke-linecap="butt" stroke-opacity="1.0" stroke="rgb(0, 0, 0)" stroke-linejoin="bevel" d=" M 616.594, 702.219 616.594, 712.219 616.594, 722.219 616.594, 732.219 616.594, 742.219 616.594, 752.219 616.594, 762.219 616.594, 770.576 614.436, 764.079 614.436, 754.079 614.436, 744.079 614.436, 734.079 614.436, 724.079 614.436, 714.079 614.436, 704.079 614.436, 702.219 " />
            <path fill="none" stroke-width="4.0" stroke-linecap="butt" stroke-opacity="1.0" stroke="rgb(0, 0, 0)" stroke-linejoin="bevel" d=" M 419.642, 842.576 420.737, 837.363 " />
            <path fill="none" stroke-width="4.0" stroke-linecap="butt" stroke-opacity="1.0" stroke="rgb(0, 0, 0)" stroke-linejoin="bevel" d=" M 411.163, 863.891 413.219, 854.105 415.165, 844.838 416.157, 840.118 416.735, 837.363 " />
            <path fill="none" stroke-width="4.0" stroke-linecap="butt" stroke-opacity="1.0" stroke="rgb(0, 0, 0)" stroke-linejoin="bevel" d=" M 710.491, 864.770 712.570, 854.988 714.649, 845.207 716.316, 837.363 " />
            <path fill="none" stroke-width="4.0" stroke-linecap="butt" stroke-opacity="1.0" stroke="rgb(0, 0, 0)" stroke-linejoin="bevel" d=" M 331.247, 786.869 321.320, 788.072 311.393, 789.276 301.465, 790.479 291.538, 791.682 281.611, 792.886 271.684, 794.089 267.388, 794.610 257.528, 796.279 247.669, 797.949 237.809, 799.619 227.949, 801.288 218.090, 802.958 208.230, 804.627 206.451, 804.928 196.713, 807.201 186.974, 809.473 177.236, 811.746 167.497, 814.018 157.759, 816.291 151.413, 817.772 141.915, 820.899 132.417, 824.027 122.918, 827.154 113.420, 830.282 104.575, 833.194 95.640, 837.686 86.706, 842.178 77.771, 846.670 68.839, 851.161 61.632, 858.094 54.426, 865.027 47.726, 871.473 46.609, 881.411 45.492, 891.348 45.231, 893.674 51.786, 901.225 58.341, 908.777 64.896, 916.329 65.426, 916.940 74.377, 921.400 83.327, 925.860 92.277, 930.320 101.228, 934.780 110.178, 939.240 111.713, 940.005 121.328, 942.753 130.943, 945.501 140.558, 948.249 150.173, 950.998 159.788, 953.746 169.403, 956.494 179.018, 959.242 185.705, 961.154 195.561, 962.847 205.417, 964.539 215.272, 966.232 225.128, 967.925 234.984, 969.618 244.840, 971.311 254.695, 973.003 264.551, 974.696 274.407, 976.389 284.262, 978.082 285.978, 978.376 295.934, 979.307 305.891, 980.237 315.848, 981.168 325.804, 982.098 335.761, 983.029 345.717, 983.959 355.674, 984.890 365.631, 985.820 375.587, 986.751 385.544, 987.681 395.501, 988.612 405.457, 989.542 407.155, 989.701 417.151, 989.999 427.146, 990.297 437.142, 990.594 447.138, 990.892 457.133, 991.190 467.129, 991.487 477.124, 991.785 487.120, 992.083 497.115, 992.381 507.111, 992.678 517.107, 992.976 527.102, 993.274 537.098, 993.572 540.000, 993.658 549.996, 993.360 559.991, 993.063 569.987, 992.765 579.982, 992.467 589.978, 992.169 599.973, 991.872 609.969, 991.574 619.965, 991.276 629.960, 990.978 639.956, 990.681 649.951, 990.383 659.947, 990.085 669.942, 989.787 672.845, 989.701 682.801, 988.771 692.758, 987.840 702.715, 986.910 712.671, 985.979 722.628, 985.049 732.584, 984.118 742.541, 983.188 752.498, 982.257 762.454, 981.327 772.411, 980.396 782.367, 979.466 792.324, 978.535 794.022, 978.376 803.878, 976.684 813.734, 974.991 823.589, 973.298 833.445, 971.605 843.301, 969.912 853.156, 968.220 863.012, 966.527 872.868, 964.834 882.723, 963.141 892.579, 961.448 894.295, 961.154 903.910, 958.406 913.525, 955.657 923.139, 952.909 932.754, 950.161 942.369, 947.413 951.984, 944.665 961.599, 941.916 968.287, 940.005 977.237, 935.545 986.188, 931.085 995.138, 926.625 1004.088, 922.165 1013.039, 917.705 1014.573, 916.940 1021.129, 909.388 1027.684, 901.836 1034.239, 894.285 1034.769, 893.674 1033.652, 883.736 1032.536, 873.799 1032.274, 871.473 1025.068, 864.540 1017.862, 857.607 1011.161, 851.161 1002.227, 846.669 993.293, 842.177 984.358, 837.685 975.425, 833.194 965.927, 830.066 956.429, 826.939 946.930, 823.812 937.432, 820.684 928.587, 817.772 918.848, 815.499 909.110, 813.227 899.372, 810.954 889.633, 808.682 879.895, 806.409 873.549, 804.928 863.689, 803.259 853.830, 801.589 843.970, 799.920 834.110, 798.250 824.251, 796.581 814.391, 794.911 812.612, 794.610 802.685, 793.407 792.758, 792.203 782.830, 791.000 772.903, 789.796 762.976, 788.593 753.048, 787.390 748.753, 786.869 " />
            <path fill="none" stroke-width="4.0" stroke-linecap="butt" stroke-opacity="1.0" stroke="rgb(0, 0, 0)" stroke-linejoin="bevel" d=" M 364.660, 529.156 374.660, 529.156 384.660, 529.156 394.660, 529.156 404.660, 529.156 414.660, 529.156 424.660, 529.156 434.660, 529.156 444.660, 529.156 454.660, 529.156 464.660, 529.156 474.660, 529.156 484.660, 529.156 494.660, 529.156 504.660, 529.156 514.660, 529.156 524.660, 529.156 534.660, 529.156 544.660, 529.156 554.660, 529.156 564.660, 529.156 574.660, 529.156 584.660, 529.156 594.660, 529.156 604.660, 529.156 614.660, 529.156 624.660, 529.156 634.660, 529.156 644.660, 529.156 654.660, 529.156 664.660, 529.156 674.660, 529.156 684.660, 529.156 694.660, 529.156 704.660, 529.156 715.340, 529.156 " />
            <path fill="none" stroke-width="4.0" stroke-linecap="butt" stroke-opacity="1.0" stroke="rgb(0, 0, 0)" stroke-linejoin="bevel" d=" M 364.660, 427.302 374.660, 427.302 384.660, 427.302 394.660, 427.302 404.660, 427.302 414.660, 427.302 424.660, 427.302 434.660, 427.302 444.660, 427.302 454.660, 427.302 464.660, 427.302 474.660, 427.302 484.660, 427.302 494.660, 427.302 504.660, 427.302 514.660, 427.302 524.660, 427.302 534.660, 427.302 544.660, 427.302 554.660, 427.302 564.660, 427.302 574.660, 427.302 584.660, 427.302 594.660, 427.302 604.660, 427.302 614.660, 427.302 624.660, 427.302 634.660, 427.302 644.660, 427.302 654.660, 427.302 664.660, 427.302 674.660, 427.302 684.660, 427.302 694.660, 427.302 704.660, 427.302 715.340, 427.302 " />
            <path fill="none" stroke-width="4.0" stroke-linecap="butt" stroke-opacity="1.0" stroke="rgb(0, 0, 0)" stroke-linejoin="bevel" d=" M 364.660, 325.449 374.660, 325.449 384.660, 325.449 394.660, 325.449 404.660, 325.449 414.660, 325.449 424.660, 325.449 434.660, 325.449 444.660, 325.449 454.660, 325.449 464.660, 325.449 474.660, 325.449 484.660, 325.449 494.660, 325.449 504.660, 325.449 514.660, 325.449 524.660, 325.449 534.660, 325.449 544.660, 325.449 554.660, 325.449 564.660, 325.449 574.660, 325.449 584.660, 325.449 594.660, 325.449 604.660, 325.449 614.660, 325.449 624.660, 325.449 634.660, 325.449 644.660, 325.449 654.660, 325.449 664.660, 325.449 674.660, 325.449 684.660, 325.449 694.660, 325.449 704.660, 325.449 715.340, 325.449 " />
            <path fill="none" stroke-width="4.0" stroke-linecap="butt" stroke-opacity="1.0" stroke="rgb(0, 0, 0)" stroke-linejoin="bevel" d=" M 620.629, 663.339 620.886, 663.732 626.217, 670.228 632.713, 675.559 640.125, 679.520 648.166, 681.960 656.530, 682.784 664.893, 681.960 672.935, 679.520 680.346, 675.559 686.842, 670.228 692.173, 663.732 696.135, 656.320 698.574, 648.278 699.398, 639.915 698.574, 631.552 696.135, 623.510 692.173, 616.099 686.842, 609.603 680.346, 604.272 672.935, 600.310 672.512, 600.119 " />
            <path fill="none" stroke-width="4.0" stroke-linecap="butt" stroke-opacity="1.0" stroke="rgb(0, 0, 0)" stroke-linejoin="bevel" d=" M 656.842, 598.766 664.922, 599.562 672.692, 601.919 679.852, 605.746 686.128, 610.897 691.279, 617.173 695.106, 624.334 697.463, 632.103 698.259, 640.183 697.463, 648.263 695.106, 656.033 691.279, 663.193 686.128, 669.469 679.852, 674.620 672.692, 678.447 664.922, 680.804 656.842, 681.600 648.762, 680.804 640.992, 678.447 633.832, 674.620 627.556, 669.469 622.405, 663.193 618.578, 656.033 616.221, 648.263 615.425, 640.183 616.221, 632.103 618.578, 624.334 622.405, 617.173 627.556, 610.897 633.832, 605.746 640.992, 601.919 648.762, 599.562 656.842, 598.766 " />
            <path fill="none" stroke-width="4.0" stroke-linecap="butt" stroke-opacity="1.0" stroke="rgb(0, 0, 0)" stroke-linejoin="bevel" d=" M 557.988, 661.017 558.046, 661.403 559.492, 666.172 561.841, 670.567 565.003, 674.419 568.855, 677.580 573.250, 679.929 578.019, 681.376 582.978, 681.864 587.937, 681.376 592.706, 679.929 597.101, 677.580 600.953, 674.419 604.114, 670.567 606.464, 666.172 607.910, 661.403 608.398, 656.444 607.910, 651.484 606.464, 646.716 604.114, 642.321 603.911, 641.996 " />
            <path fill="none" stroke-width="4.0" stroke-linecap="butt" stroke-opacity="1.0" stroke="rgb(0, 0, 0)" stroke-linejoin="bevel" d=" M 647.104, 769.445 647.104, 759.445 647.104, 749.445 647.104, 739.445 647.104, 729.445 647.104, 719.445 647.104, 709.445 647.104, 707.941 " />
            <path fill="none" stroke-width="4.0" stroke-linecap="butt" stroke-opacity="1.0" stroke="rgb(0, 0, 0)" stroke-linejoin="bevel" d=" M 708.607, 707.941 698.607, 707.941 688.607, 707.941 678.607, 707.941 668.607, 707.941 658.607, 707.941 648.607, 707.941 647.104, 707.941 646.141, 706.431 " />
            <path fill="none" stroke-width="4.0" stroke-linecap="butt" stroke-opacity="1.0" stroke="rgb(0, 0, 0)" stroke-linejoin="bevel" d=" M 646.141, 767.382 647.104, 769.445 657.104, 769.445 667.104, 769.445 677.104, 769.445 687.104, 769.445 697.104, 769.445 707.104, 769.445 708.607, 769.445 708.607, 759.445 708.607, 749.445 708.607, 739.445 708.607, 729.445 708.607, 719.445 708.607, 709.445 708.607, 707.941 707.092, 706.431 " />
            <path fill="none" stroke-width="4.0" stroke-linecap="butt" stroke-opacity="1.0" stroke="rgb(0, 0, 0)" stroke-linejoin="bevel" d=" M 395.284, 501.284 394.776, 501.148 392.536, 500.927 390.295, 501.148 388.141, 501.802 386.155, 502.863 384.415, 504.291 382.987, 506.031 381.925, 508.017 381.272, 510.171 381.051, 512.412 381.272, 514.652 381.925, 516.807 382.987, 518.792 384.415, 520.533 386.155, 521.961 388.141, 523.022 390.295, 523.676 390.819, 523.733 " />
            <path fill="none" stroke-width="4.0" stroke-linecap="butt" stroke-opacity="1.0" stroke="rgb(0, 0, 0)" stroke-linejoin="bevel" d=" M 394.776, 501.148 396.931, 501.802 398.916, 502.863 400.656, 504.291 402.085, 506.031 403.146, 508.017 403.800, 510.171 404.020, 512.412 403.800, 514.652 403.146, 516.807 402.085, 518.792 400.656, 520.533 398.916, 521.961 396.931, 523.022 394.776, 523.676 392.536, 523.896 390.295, 523.676 " />
            <path fill="none" stroke-width="4.0" stroke-linecap="butt" stroke-opacity="1.0" stroke="rgb(0, 0, 0)" stroke-linejoin="bevel" d=" M 401.144, 402.790 400.656, 402.308 400.360, 402.064 398.916, 400.880 397.310, 400.021 396.931, 399.818 394.776, 399.165 392.536, 398.944 390.295, 399.165 388.776, 399.626 388.141, 399.818 386.155, 400.880 384.712, 402.064 384.415, 402.308 382.987, 404.048 381.925, 406.034 381.272, 408.188 381.051, 410.429 381.272, 412.669 381.925, 414.824 382.987, 416.809 384.415, 418.550 386.155, 419.978 386.693, 420.398 " />
            <path fill="none" stroke-width="4.0" stroke-linecap="butt" stroke-opacity="1.0" stroke="rgb(0, 0, 0)" stroke-linejoin="bevel" d=" M 400.656, 402.308 402.085, 404.048 403.146, 406.034 403.800, 408.188 404.020, 410.429 403.800, 412.669 403.146, 414.824 402.085, 416.809 400.656, 418.550 398.916, 419.978 396.931, 421.039 394.776, 421.693 392.536, 421.913 390.295, 421.693 388.141, 421.039 386.155, 419.978 " />
            <path fill="none" stroke-width="4.0" stroke-linecap="butt" stroke-opacity="1.0" stroke="rgb(0, 0, 0)" stroke-linejoin="bevel" d=" M 402.567, 302.897 402.085, 302.065 400.656, 300.325 398.916, 298.897 397.429, 298.102 396.931, 297.836 394.776, 297.182 394.624, 297.167 392.536, 296.961 391.764, 297.037 390.295, 297.182 388.902, 297.605 388.141, 297.836 386.155, 298.897 384.415, 300.325 382.987, 302.065 381.925, 304.051 381.681, 304.856 381.272, 306.205 381.051, 308.446 381.272, 310.686 381.925, 312.841 382.987, 314.826 383.536, 315.614 " />
            <path fill="none" stroke-width="4.0" stroke-linecap="butt" stroke-opacity="1.0" stroke="rgb(0, 0, 0)" stroke-linejoin="bevel" d=" M 402.085, 302.065 403.146, 304.051 403.800, 306.205 404.020, 308.446 403.800, 310.686 403.146, 312.841 402.085, 314.826 400.656, 316.567 398.916, 317.995 396.931, 319.056 394.776, 319.710 392.536, 319.930 390.295, 319.710 388.141, 319.056 386.155, 317.995 384.415, 316.567 382.987, 314.826 " />
            <path fill="none" stroke-width="4.0" stroke-linecap="butt" stroke-opacity="1.0" stroke="rgb(0, 0, 0)" stroke-linejoin="bevel" d=" M 456.255, 501.935 455.961, 501.802 453.807, 501.148 451.566, 500.927 449.326, 501.148 447.171, 501.802 445.186, 502.863 443.446, 504.291 442.017, 506.031 440.956, 508.017 440.302, 510.171 440.082, 512.412 440.302, 514.652 440.956, 516.807 442.017, 518.792 443.446, 520.533 445.186, 521.961 447.171, 523.022 449.326, 523.676 449.643, 523.733 " />
            <path fill="none" stroke-width="4.0" stroke-linecap="butt" stroke-opacity="1.0" stroke="rgb(0, 0, 0)" stroke-linejoin="bevel" d=" M 455.961, 501.802 457.947, 502.863 459.687, 504.291 461.115, 506.031 462.177, 508.017 462.830, 510.171 463.051, 512.412 462.830, 514.652 462.177, 516.807 461.115, 518.792 459.687, 520.533 457.947, 521.961 455.961, 523.022 453.807, 523.676 451.566, 523.896 449.326, 523.676 " />
            <path fill="none" stroke-width="4.0" stroke-linecap="butt" stroke-opacity="1.0" stroke="rgb(0, 0, 0)" stroke-linejoin="bevel" d=" M 461.391, 404.524 461.115, 404.048 459.687, 402.308 459.390, 402.064 457.947, 400.880 456.289, 399.994 455.961, 399.818 453.807, 399.165 451.566, 398.944 449.326, 399.165 447.171, 399.818 447.119, 399.847 445.186, 400.880 443.742, 402.064 443.446, 402.308 442.017, 404.048 440.956, 406.034 440.302, 408.188 440.082, 410.429 440.302, 412.669 440.956, 414.824 442.017, 416.809 442.360, 417.240 " />
            <path fill="none" stroke-width="4.0" stroke-linecap="butt" stroke-opacity="1.0" stroke="rgb(0, 0, 0)" stroke-linejoin="bevel" d=" M 461.115, 404.048 462.177, 406.034 462.830, 408.188 463.051, 410.429 462.830, 412.669 462.177, 414.824 461.115, 416.809 459.687, 418.550 457.947, 419.978 455.961, 421.039 453.807, 421.693 451.566, 421.913 449.326, 421.693 447.171, 421.039 445.186, 419.978 443.446, 418.550 442.017, 416.809 " />
            <path fill="none" stroke-width="4.0" stroke-linecap="butt" stroke-opacity="1.0" stroke="rgb(0, 0, 0)" stroke-linejoin="bevel" d=" M 462.442, 304.856 462.177, 304.051 461.115, 302.065 459.687, 300.325 457.947, 298.897 455.961, 297.836 453.807, 297.182 451.566, 296.961 449.326, 297.182 447.171, 297.836 445.186, 298.897 443.446, 300.325 442.017, 302.065 440.956, 304.051 440.712, 304.856 440.302, 306.205 440.082, 308.446 440.302, 310.686 440.956, 312.841 441.302, 313.635 " />
            <path fill="none" stroke-width="4.0" stroke-linecap="butt" stroke-opacity="1.0" stroke="rgb(0, 0, 0)" stroke-linejoin="bevel" d=" M 462.177, 304.051 462.830, 306.205 463.051, 308.446 462.830, 310.686 462.177, 312.841 461.115, 314.826 459.687, 316.567 457.947, 317.995 455.961, 319.056 453.807, 319.710 451.566, 319.930 449.326, 319.710 447.171, 319.056 445.186, 317.995 443.446, 316.567 442.017, 314.826 440.956, 312.841 " />
            <path fill="none" stroke-width="4.0" stroke-linecap="butt" stroke-opacity="1.0" stroke="rgb(0, 0, 0)" stroke-linejoin="bevel" d=" M 520.216, 506.150 520.146, 506.031 518.718, 504.291 516.978, 502.863 514.992, 501.802 512.838, 501.148 510.597, 500.927 508.357, 501.148 506.202, 501.802 504.217, 502.863 502.476, 504.291 501.048, 506.031 499.987, 508.017 499.333, 510.171 499.112, 512.412 499.333, 514.652 499.987, 516.807 501.048, 518.792 502.476, 520.533 504.217, 521.961 506.202, 523.022 506.320, 523.082 " />
            <path fill="none" stroke-width="4.0" stroke-linecap="butt" stroke-opacity="1.0" stroke="rgb(0, 0, 0)" stroke-linejoin="bevel" d=" M 520.146, 506.031 521.207, 508.017 521.861, 510.171 522.082, 512.412 521.861, 514.652 521.207, 516.807 520.146, 518.792 518.718, 520.533 516.978, 521.961 514.992, 523.022 512.838, 523.676 510.597, 523.896 508.357, 523.676 506.202, 523.022 " />
            <path fill="none" stroke-width="4.0" stroke-linecap="butt" stroke-opacity="1.0" stroke="rgb(0, 0, 0)" stroke-linejoin="bevel" d=" M 521.924, 408.649 521.861, 408.188 521.207, 406.034 520.146, 404.048 518.718, 402.308 518.421, 402.064 516.978, 400.880 514.992, 399.818 512.838, 399.165 510.597, 398.944 508.357, 399.165 506.202, 399.818 504.217, 400.880 502.773, 402.064 502.476, 402.308 501.048, 404.048 499.987, 406.034 499.333, 408.188 499.112, 410.429 499.333, 412.669 499.987, 414.824 500.127, 415.262 " />
            <path fill="none" stroke-width="4.0" stroke-linecap="butt" stroke-opacity="1.0" stroke="rgb(0, 0, 0)" stroke-linejoin="bevel" d=" M 521.861, 408.188 522.082, 410.429 521.861, 412.669 521.207, 414.824 520.146, 416.809 518.718, 418.550 516.978, 419.978 514.992, 421.039 512.838, 421.693 510.597, 421.913 508.357, 421.693 506.202, 421.039 504.217, 419.978 502.476, 418.550 501.048, 416.809 499.987, 414.824 " />
            <path fill="none" stroke-width="4.0" stroke-linecap="butt" stroke-opacity="1.0" stroke="rgb(0, 0, 0)" stroke-linejoin="bevel" d=" M 522.144, 309.256 522.082, 308.446 521.861, 306.205 521.452, 304.856 521.207, 304.051 520.146, 302.065 518.718, 300.325 516.978, 298.897 514.992, 297.836 514.583, 297.711 512.838, 297.182 511.972, 297.097 510.597, 296.961 508.357, 297.182 508.295, 297.201 506.202, 297.836 505.747, 298.079 504.217, 298.897 502.476, 300.325 501.048, 302.065 499.987, 304.051 499.743, 304.856 499.333, 306.205 499.112, 308.446 499.333, 310.686 499.475, 311.488 " />
            <path fill="none" stroke-width="4.0" stroke-linecap="butt" stroke-opacity="1.0" stroke="rgb(0, 0, 0)" stroke-linejoin="bevel" d=" M 522.082, 308.446 521.861, 310.686 521.207, 312.841 520.146, 314.826 518.718, 316.567 516.978, 317.995 514.992, 319.056 512.838, 319.710 510.597, 319.930 508.357, 319.710 506.202, 319.056 504.217, 317.995 502.476, 316.567 501.048, 314.826 499.987, 312.841 499.333, 310.686 " />
            <path fill="none" stroke-width="4.0" stroke-linecap="butt" stroke-opacity="1.0" stroke="rgb(0, 0, 0)" stroke-linejoin="bevel" d=" M 573.904, 523.082 574.023, 523.022 576.008, 521.961 577.749, 520.533 579.177, 518.792 580.238, 516.807 580.892, 514.652 581.112, 512.412 580.892, 510.171 580.238, 508.017 579.177, 506.031 577.749, 504.291 576.008, 502.863 574.023, 501.802 571.868, 501.148 569.628, 500.927 567.387, 501.148 565.233, 501.802 563.247, 502.863 561.507, 504.291 560.079, 506.031 560.008, 506.150 " />
            <path fill="none" stroke-width="4.0" stroke-linecap="butt" stroke-opacity="1.0" stroke="rgb(0, 0, 0)" stroke-linejoin="bevel" d=" M 574.023, 523.022 571.868, 523.676 569.628, 523.896 567.387, 523.676 565.233, 523.022 563.247, 521.961 561.507, 520.533 560.079, 518.792 559.017, 516.807 558.364, 514.652 558.143, 512.412 558.364, 510.171 559.017, 508.017 560.079, 506.031 " />
            <path fill="none" stroke-width="4.0" stroke-linecap="butt" stroke-opacity="1.0" stroke="rgb(0, 0, 0)" stroke-linejoin="bevel" d=" M 580.097, 415.262 580.238, 414.824 580.892, 412.669 581.112, 410.429 580.892, 408.188 580.238, 406.034 579.177, 404.048 577.749, 402.308 577.452, 402.064 576.008, 400.880 574.054, 399.835 574.023, 399.818 571.868, 399.165 569.628, 398.944 567.387, 399.165 565.233, 399.818 564.899, 399.997 563.247, 400.880 561.804, 402.064 561.507, 402.308 560.079, 404.048 559.017, 406.034 558.364, 408.188 558.300, 408.649 " />
            <path fill="none" stroke-width="4.0" stroke-linecap="butt" stroke-opacity="1.0" stroke="rgb(0, 0, 0)" stroke-linejoin="bevel" d=" M 580.238, 414.824 579.177, 416.809 577.749, 418.550 576.008, 419.978 574.023, 421.039 571.868, 421.693 569.628, 421.913 567.387, 421.693 565.233, 421.039 563.247, 419.978 561.507, 418.550 560.079, 416.809 559.017, 414.824 558.364, 412.669 558.143, 410.429 558.364, 408.188 " />
            <path fill="none" stroke-width="4.0" stroke-linecap="butt" stroke-opacity="1.0" stroke="rgb(0, 0, 0)" stroke-linejoin="bevel" d=" M 580.749, 311.488 580.892, 310.686 581.112, 308.446 580.892, 306.205 580.482, 304.856 580.238, 304.051 579.177, 302.065 577.749, 300.325 576.008, 298.897 574.023, 297.836 571.868, 297.182 569.628, 296.961 567.387, 297.182 565.233, 297.836 563.247, 298.897 561.507, 300.325 560.079, 302.065 559.017, 304.051 558.773, 304.856 558.364, 306.205 558.143, 308.446 558.080, 309.256 " />
            <path fill="none" stroke-width="4.0" stroke-linecap="butt" stroke-opacity="1.0" stroke="rgb(0, 0, 0)" stroke-linejoin="bevel" d=" M 580.892, 310.686 580.238, 312.841 579.177, 314.826 577.749, 316.567 576.008, 317.995 574.023, 319.056 571.868, 319.710 569.628, 319.930 567.387, 319.710 565.233, 319.056 563.247, 317.995 561.507, 316.567 560.079, 314.826 559.017, 312.841 558.364, 310.686 558.143, 308.446 " />
            <path fill="none" stroke-width="4.0" stroke-linecap="butt" stroke-opacity="1.0" stroke="rgb(0, 0, 0)" stroke-linejoin="bevel" d=" M 630.581, 523.733 630.899, 523.676 633.053, 523.022 635.039, 521.961 636.779, 520.533 638.208, 518.792 639.269, 516.807 639.922, 514.652 640.143, 512.412 639.922, 510.171 639.269, 508.017 638.208, 506.031 636.779, 504.291 635.039, 502.863 633.053, 501.802 630.899, 501.148 628.658, 500.927 626.418, 501.148 624.263, 501.802 623.969, 501.935 " />
            <path fill="none" stroke-width="4.0" stroke-linecap="butt" stroke-opacity="1.0" stroke="rgb(0, 0, 0)" stroke-linejoin="bevel" d=" M 630.899, 523.676 628.658, 523.896 626.418, 523.676 624.263, 523.022 622.278, 521.961 620.538, 520.533 619.109, 518.792 618.048, 516.807 617.395, 514.652 617.174, 512.412 617.395, 510.171 618.048, 508.017 619.109, 506.031 620.538, 504.291 622.278, 502.863 624.263, 501.802 " />
            <path fill="none" stroke-width="4.0" stroke-linecap="butt" stroke-opacity="1.0" stroke="rgb(0, 0, 0)" stroke-linejoin="bevel" d=" M 637.864, 417.240 638.208, 416.809 639.269, 414.824 639.922, 412.669 640.143, 410.429 639.922, 408.188 639.269, 406.034 638.208, 404.048 636.779, 402.308 636.482, 402.064 635.039, 400.880 633.053, 399.818 632.349, 399.605 630.899, 399.165 628.658, 398.944 626.418, 399.165 624.263, 399.818 623.886, 400.021 622.278, 400.880 620.835, 402.064 620.538, 402.308 619.109, 404.048 618.833, 404.524 " />
            <path fill="none" stroke-width="4.0" stroke-linecap="butt" stroke-opacity="1.0" stroke="rgb(0, 0, 0)" stroke-linejoin="bevel" d=" M 638.208, 416.809 636.779, 418.550 635.039, 419.978 633.053, 421.039 630.899, 421.693 628.658, 421.913 626.418, 421.693 624.263, 421.039 622.278, 419.978 620.538, 418.550 619.109, 416.809 618.048, 414.824 617.395, 412.669 617.174, 410.429 617.395, 408.188 618.048, 406.034 619.109, 404.048 " />
            <path fill="none" stroke-width="4.0" stroke-linecap="butt" stroke-opacity="1.0" stroke="rgb(0, 0, 0)" stroke-linejoin="bevel" d=" M 638.922, 313.635 639.269, 312.841 639.922, 310.686 640.143, 308.446 639.922, 306.205 639.513, 304.856 639.269, 304.051 638.208, 302.065 636.779, 300.325 635.039, 298.897 633.053, 297.836 632.988, 297.816 630.899, 297.182 630.303, 297.123 628.658, 296.961 626.418, 297.182 626.335, 297.207 624.263, 297.836 623.878, 298.042 622.278, 298.897 620.538, 300.325 619.109, 302.065 618.048, 304.051 617.782, 304.856 " />
            <path fill="none" stroke-width="4.0" stroke-linecap="butt" stroke-opacity="1.0" stroke="rgb(0, 0, 0)" stroke-linejoin="bevel" d=" M 639.269, 312.841 638.208, 314.826 636.779, 316.567 635.039, 317.995 633.053, 319.056 630.899, 319.710 628.658, 319.930 626.418, 319.710 624.263, 319.056 622.278, 317.995 620.538, 316.567 619.109, 314.826 618.048, 312.841 617.395, 310.686 617.174, 308.446 617.395, 306.205 618.048, 304.051 " />
            <path fill="none" stroke-width="4.0" stroke-linecap="butt" stroke-opacity="1.0" stroke="rgb(0, 0, 0)" stroke-linejoin="bevel" d=" M 689.405, 523.733 689.930, 523.676 692.084, 523.022 694.070, 521.961 695.810, 520.533 697.238, 518.792 698.299, 516.807 698.953, 514.652 699.174, 512.412 698.953, 510.171 698.299, 508.017 697.238, 506.031 695.810, 504.291 694.070, 502.863 692.084, 501.802 689.930, 501.148 687.689, 500.927 685.449, 501.148 684.940, 501.284 " />
            <path fill="none" stroke-width="4.0" stroke-linecap="butt" stroke-opacity="1.0" stroke="rgb(0, 0, 0)" stroke-linejoin="bevel" d=" M 689.930, 523.676 687.689, 523.896 685.449, 523.676 683.294, 523.022 681.309, 521.961 679.568, 520.533 678.140, 518.792 677.079, 516.807 676.425, 514.652 676.205, 512.412 676.425, 510.171 677.079, 508.017 678.140, 506.031 679.568, 504.291 681.309, 502.863 683.294, 501.802 685.449, 501.148 " />
            <path fill="none" stroke-width="4.0" stroke-linecap="butt" stroke-opacity="1.0" stroke="rgb(0, 0, 0)" stroke-linejoin="bevel" d=" M 693.531, 420.398 694.070, 419.978 695.810, 418.550 697.238, 416.809 698.299, 414.824 698.953, 412.669 699.174, 410.429 698.953, 408.188 698.299, 406.034 697.238, 404.048 695.810, 402.308 695.513, 402.064 694.070, 400.880 692.084, 399.818 689.930, 399.165 687.689, 398.944 685.449, 399.165 683.294, 399.818 681.309, 400.880 679.865, 402.064 679.568, 402.308 679.080, 402.790 " />
            <path fill="none" stroke-width="4.0" stroke-linecap="butt" stroke-opacity="1.0" stroke="rgb(0, 0, 0)" stroke-linejoin="bevel" d=" M 694.070, 419.978 692.084, 421.039 689.930, 421.693 687.689, 421.913 685.449, 421.693 683.294, 421.039 681.309, 419.978 679.568, 418.550 678.140, 416.809 677.079, 414.824 676.425, 412.669 676.205, 410.429 676.425, 408.188 677.079, 406.034 678.140, 404.048 679.568, 402.308 " />
            <path fill="none" stroke-width="4.0" stroke-linecap="butt" stroke-opacity="1.0" stroke="rgb(0, 0, 0)" stroke-linejoin="bevel" d=" M 696.688, 315.614 697.238, 314.826 698.299, 312.841 698.953, 310.686 699.174, 308.446 698.953, 306.205 698.544, 304.856 698.299, 304.051 697.238, 302.065 695.810, 300.325 694.070, 298.897 692.084, 297.836 689.930, 297.182 687.689, 296.961 685.449, 297.182 683.294, 297.836 681.309, 298.897 679.568, 300.325 678.140, 302.065 677.657, 302.897 " />
            <path fill="none" stroke-width="4.0" stroke-linecap="butt" stroke-opacity="1.0" stroke="rgb(0, 0, 0)" stroke-linejoin="bevel" d=" M 697.238, 314.826 695.810, 316.567 694.070, 317.995 692.084, 319.056 689.930, 319.710 687.689, 319.930 685.449, 319.710 683.294, 319.056 681.309, 317.995 679.568, 316.567 678.140, 314.826 677.079, 312.841 676.425, 310.686 676.205, 308.446 676.425, 306.205 677.079, 304.051 678.140, 302.065 " />
            <path fill="none" stroke-width="4.0" stroke-linecap="butt" stroke-opacity="1.0" stroke="rgb(0, 0, 0)" stroke-linejoin="bevel" d=" M 411.639, 497.327 412.007, 497.177 412.046, 497.093 413.441, 493.261 413.441, 483.261 413.441, 473.261 413.441, 463.261 413.441, 455.056 412.046, 451.224 408.444, 449.740 408.026, 449.605 407.181, 449.475 405.940, 449.354 404.349, 449.249 402.469, 449.162 400.372, 449.097 398.142, 449.057 395.865, 449.044 393.630, 449.057 391.526, 449.097 389.635, 449.162 388.031, 449.249 386.774, 449.354 385.914, 449.475 385.481, 449.605 381.869, 451.050 380.469, 454.873 380.469, 464.873 380.469, 474.873 380.469, 484.873 380.469, 493.161 380.494, 493.261 381.889, 497.093 382.458, 497.327 " />
            <path fill="none" stroke-width="4.0" stroke-linecap="butt" stroke-opacity="1.0" stroke="rgb(0, 0, 0)" stroke-linejoin="bevel" d=" M 381.889, 497.093 381.869, 497.008 382.431, 496.927 383.557, 496.852 385.206, 496.786 387.315, 496.731 389.803, 496.690 392.573, 496.665 395.515, 496.657 398.514, 496.665 401.451, 496.690 404.210, 496.731 406.682, 496.786 408.772, 496.852 410.400, 496.927 411.504, 497.008 412.046, 497.093 " />
            <path fill="none" stroke-width="4.0" stroke-linecap="butt" stroke-opacity="1.0" stroke="rgb(0, 0, 0)" stroke-linejoin="bevel" d=" M 412.046, 451.224 411.504, 451.050 410.400, 450.881 408.772, 450.726 406.682, 450.589 404.210, 450.476 401.451, 450.392 398.514, 450.340 395.515, 450.323 392.573, 450.340 389.803, 450.392 387.315, 450.476 385.206, 450.589 383.557, 450.726 382.431, 450.881 381.869, 451.050 " />
            <path fill="none" stroke-width="4.0" stroke-linecap="butt" stroke-opacity="1.0" stroke="rgb(0, 0, 0)" stroke-linejoin="bevel" d=" M 411.624, 293.619 412.423, 291.447 412.466, 290.912 412.466, 280.912 412.466, 270.912 412.466, 260.912 412.466, 253.596 411.065, 249.749 407.134, 240.554 403.203, 231.359 402.930, 230.722 402.930, 222.953 402.670, 222.663 402.150, 222.385 401.390, 222.128 400.417, 221.902 399.269, 221.716 397.992, 221.578 396.633, 221.493 395.247, 221.465 393.887, 221.493 392.606, 221.578 391.453, 221.716 390.475, 221.902 389.707, 222.128 389.180, 222.385 388.913, 222.663 388.913, 230.440 384.923, 239.609 380.932, 248.778 380.759, 249.176 379.352, 252.979 379.352, 262.979 379.352, 272.979 379.352, 282.979 379.352, 290.375 379.380, 290.912 380.366, 293.619 " />
            <path fill="none" stroke-width="4.0" stroke-linecap="butt" stroke-opacity="1.0" stroke="rgb(0, 0, 0)" stroke-linejoin="bevel" d=" M 381.815, 293.619 382.450, 293.376 384.104, 292.996 386.220, 292.684 388.718, 292.451 391.499, 292.307 394.454, 292.259 397.466, 292.307 400.416, 292.451 403.187, 292.684 405.671, 292.996 407.771, 293.376 408.692, 293.619 " />
            <path fill="none" stroke-width="4.0" stroke-linecap="butt" stroke-opacity="1.0" stroke="rgb(0, 0, 0)" stroke-linejoin="bevel" d=" M 412.841, 395.473 413.396, 393.954 413.441, 393.641 413.441, 383.641 413.441, 373.641 413.441, 363.641 413.441, 355.436 412.046, 351.604 411.504, 351.234 408.026, 349.836 407.181, 349.562 405.940, 349.309 404.349, 349.087 402.469, 348.904 400.372, 348.768 398.142, 348.684 395.865, 348.656 393.630, 348.684 391.526, 348.768 389.635, 348.904 388.031, 349.087 386.774, 349.309 385.914, 349.562 382.431, 350.877 381.869, 351.234 380.469, 355.039 380.469, 365.039 380.469, 375.039 380.469, 385.039 380.469, 393.327 380.494, 393.641 381.161, 395.473 " />
            <path fill="none" stroke-width="4.0" stroke-linecap="butt" stroke-opacity="1.0" stroke="rgb(0, 0, 0)" stroke-linejoin="bevel" d=" M 411.504, 351.234 410.400, 350.877 408.772, 350.546 406.682, 350.255 404.210, 350.016 401.451, 349.838 398.514, 349.728 395.515, 349.691 392.573, 349.728 389.803, 349.838 387.315, 350.016 385.206, 350.255 383.557, 350.546 382.431, 350.877 " />
            <path fill="none" stroke-width="4.0" stroke-linecap="butt" stroke-opacity="1.0" stroke="rgb(0, 0, 0)" stroke-linejoin="bevel" d=" M 522.931, 293.619 523.917, 290.912 523.917, 280.912 523.917, 270.912 523.917, 260.912 523.917, 253.596 522.516, 249.749 518.585, 240.554 514.653, 231.359 514.381, 230.722 514.381, 222.953 514.223, 222.663 513.801, 222.385 513.130, 222.128 512.237, 221.902 511.155, 221.716 509.926, 221.578 508.597, 221.493 507.221, 221.465 505.851, 221.493 504.540, 221.578 503.339, 221.716 502.295, 221.902 501.448, 222.128 500.830, 222.385 500.466, 222.663 500.367, 222.953 500.367, 230.670 " />
            <path fill="none" stroke-width="4.0" stroke-linecap="butt" stroke-opacity="1.0" stroke="rgb(0, 0, 0)" stroke-linejoin="bevel" d=" M 500.466, 230.440 500.367, 230.670 496.425, 239.860 492.430, 249.176 491.044, 252.979 490.831, 253.596 490.831, 263.596 490.831, 273.596 490.831, 283.596 490.831, 290.912 491.817, 293.619 " />
            <path fill="none" stroke-width="4.0" stroke-linecap="butt" stroke-opacity="1.0" stroke="rgb(0, 0, 0)" stroke-linejoin="bevel" d=" M 493.784, 293.619 494.529, 293.376 496.356, 292.996 498.614, 292.684 501.218, 292.451 504.064, 292.307 507.041, 292.259 510.031, 292.307 512.916, 292.451 515.581, 292.684 517.923, 292.996 519.851, 293.376 520.661, 293.619 " />
            <path fill="none" stroke-width="4.0" stroke-linecap="butt" stroke-opacity="1.0" stroke="rgb(0, 0, 0)" stroke-linejoin="bevel" d=" M 642.955, 293.619 643.941, 290.912 643.941, 280.912 643.941, 270.912 643.941, 260.912 643.941, 253.596 643.847, 252.979 642.451, 249.176 638.485, 239.996 634.519, 230.816 634.405, 230.552 634.356, 230.440 " />
            <path fill="none" stroke-width="4.0" stroke-linecap="butt" stroke-opacity="1.0" stroke="rgb(0, 0, 0)" stroke-linejoin="bevel" d=" M 634.405, 230.552 634.405, 222.953 634.356, 222.663 634.040, 222.385 633.467, 222.128 632.659, 221.902 631.647, 221.716 630.470, 221.578 629.174, 221.493 627.808, 221.465 626.427, 221.493 625.084, 221.578 623.831, 221.716 622.717, 221.902 621.784, 222.128 621.069, 222.385 620.599, 222.663 620.391, 222.953 620.391, 230.722 616.460, 239.917 612.529, 249.112 612.257, 249.749 610.855, 253.596 610.855, 263.596 610.855, 273.596 610.855, 283.596 610.855, 290.912 611.020, 291.447 611.813, 293.619 " />
            <path fill="none" stroke-width="4.0" stroke-linecap="butt" stroke-opacity="1.0" stroke="rgb(0, 0, 0)" stroke-linejoin="bevel" d=" M 614.366, 293.619 615.230, 293.376 617.243, 292.996 619.654, 292.684 622.372, 292.451 625.289, 292.307 628.289, 292.259 631.256, 292.307 634.070, 292.451 636.621, 292.684 638.810, 292.996 640.552, 293.376 641.243, 293.619 " />
            <path fill="none" stroke-width="4.0" stroke-linecap="butt" stroke-opacity="1.0" stroke="rgb(0, 0, 0)" stroke-linejoin="bevel" d=" M 468.741, 395.473 469.408, 393.641 469.408, 383.641 469.408, 373.641 469.408, 363.641 469.408, 355.436 468.012, 351.604 467.581, 351.234 464.077, 349.836 463.312, 349.562 462.145, 349.309 460.620, 349.087 458.793, 348.904 456.737, 348.768 454.532, 348.684 452.263, 348.656 450.020, 348.684 447.891, 348.768 445.960, 348.904 444.302, 349.087 442.980, 349.309 442.045, 349.562 438.614, 350.877 437.946, 351.234 436.555, 355.039 436.460, 355.436 436.460, 365.436 436.460, 375.436 436.460, 385.436 436.460, 393.641 437.128, 395.473 " />
            <path fill="none" stroke-width="4.0" stroke-linecap="butt" stroke-opacity="1.0" stroke="rgb(0, 0, 0)" stroke-linejoin="bevel" d=" M 467.581, 351.234 466.582, 350.877 465.053, 350.546 463.049, 350.255 460.648, 350.016 457.942, 349.838 455.038, 349.728 452.050, 349.691 449.096, 349.728 446.294, 349.838 443.753, 350.016 441.573, 350.255 439.838, 350.546 438.614, 350.877 " />
            <path fill="none" stroke-width="4.0" stroke-linecap="butt" stroke-opacity="1.0" stroke="rgb(0, 0, 0)" stroke-linejoin="bevel" d=" M 583.519, 395.473 584.187, 393.641 584.187, 383.641 584.187, 373.641 584.187, 363.641 584.187, 355.436 582.791, 351.604 582.585, 351.234 581.804, 350.877 578.428, 349.562 577.414, 349.309 576.023, 349.087 574.307, 348.904 572.333, 348.768 570.178, 348.684 567.926, 348.656 565.667, 348.684 563.487, 348.768 561.474, 348.904 559.705, 349.087 558.248, 349.309 557.160, 349.562 553.836, 350.877 552.950, 351.234 552.635, 351.604 551.239, 355.436 551.239, 365.436 551.239, 375.436 551.239, 385.436 551.239, 393.641 551.906, 395.473 " />
            <path fill="none" stroke-width="4.0" stroke-linecap="butt" stroke-opacity="1.0" stroke="rgb(0, 0, 0)" stroke-linejoin="bevel" d=" M 581.804, 350.877 580.476, 350.546 578.649, 350.255 576.394, 350.016 573.797, 349.838 570.960, 349.728 567.994, 349.691 565.018, 349.728 562.148, 349.838 559.499, 350.016 557.173, 350.255 555.261, 350.546 553.836, 350.877 " />
            <path fill="none" stroke-width="4.0" stroke-linecap="butt" stroke-opacity="1.0" stroke="rgb(0, 0, 0)" stroke-linejoin="bevel" d=" M 639.486, 395.473 640.153, 393.641 640.153, 383.641 640.153, 373.641 640.153, 363.641 640.153, 355.436 640.051, 355.039 638.661, 351.234 637.987, 350.877 634.559, 349.562 633.619, 349.309 632.293, 349.087 630.632, 348.904 628.698, 348.768 626.568, 348.684 624.324, 348.656 622.056, 348.684 619.852, 348.768 617.798, 348.904 615.975, 349.087 614.454, 349.309 613.291, 349.562 612.532, 349.836 609.026, 351.234 608.601, 351.604 607.206, 355.436 607.206, 365.436 607.206, 375.436 607.206, 385.436 607.206, 393.641 607.873, 395.473 " />
            <path fill="none" stroke-width="4.0" stroke-linecap="butt" stroke-opacity="1.0" stroke="rgb(0, 0, 0)" stroke-linejoin="bevel" d=" M 637.987, 350.877 636.757, 350.546 635.017, 350.255 632.832, 350.016 630.288, 349.838 627.483, 349.728 624.529, 349.691 621.542, 349.728 618.639, 349.838 615.937, 350.016 613.540, 350.255 611.542, 350.546 610.018, 350.877 609.026, 351.234 " />
            <path fill="none" stroke-width="4.0" stroke-linecap="butt" stroke-opacity="1.0" stroke="rgb(0, 0, 0)" stroke-linejoin="bevel" d=" M 699.847, 497.327 700.415, 497.093 701.811, 493.261 701.841, 493.161 701.841, 483.161 701.841, 473.161 701.841, 463.161 701.841, 454.873 700.440, 451.050 696.827, 449.605 696.398, 449.475 695.540, 449.354 694.287, 449.249 692.684, 449.162 690.795, 449.097 688.692, 449.057 686.458, 449.044 684.180, 449.057 681.949, 449.097 679.851, 449.162 677.969, 449.249 676.375, 449.354 675.130, 449.475 674.282, 449.605 673.861, 449.740 670.259, 451.224 668.863, 455.056 668.863, 465.056 668.863, 475.056 668.863, 485.056 668.863, 493.261 670.259, 497.093 670.293, 497.177 670.662, 497.327 " />
            <path fill="none" stroke-width="4.0" stroke-linecap="butt" stroke-opacity="1.0" stroke="rgb(0, 0, 0)" stroke-linejoin="bevel" d=" M 670.259, 497.093 670.805, 497.008 671.914, 496.927 673.546, 496.852 675.639, 496.786 678.115, 496.731 680.875, 496.690 683.813, 496.665 686.813, 496.657 689.755, 496.665 692.524, 496.690 695.010, 496.731 697.116, 496.786 698.761, 496.852 699.883, 496.927 700.440, 497.008 700.415, 497.093 " />
            <path fill="none" stroke-width="4.0" stroke-linecap="butt" stroke-opacity="1.0" stroke="rgb(0, 0, 0)" stroke-linejoin="bevel" d=" M 700.440, 451.050 699.883, 450.881 698.761, 450.726 697.116, 450.589 695.010, 450.476 692.524, 450.392 689.755, 450.340 686.813, 450.323 683.813, 450.340 680.875, 450.392 678.115, 450.476 675.639, 450.589 673.546, 450.726 671.914, 450.881 670.805, 451.050 670.259, 451.224 " />
            <path fill="none" stroke-width="4.0" stroke-linecap="butt" stroke-opacity="1.0" stroke="rgb(0, 0, 0)" stroke-linejoin="bevel" d=" M 640.086, 497.327 640.655, 497.093 642.050, 493.261 642.050, 483.261 642.050, 473.261 642.050, 463.261 642.050, 455.056 640.655, 451.224 640.562, 451.050 636.977, 449.605 636.461, 449.475 635.525, 449.354 634.201, 449.249 632.541, 449.162 630.609, 449.097 628.479, 449.057 626.236, 449.044 623.968, 449.057 621.763, 449.097 619.708, 449.162 617.883, 449.249 616.359, 449.354 615.194, 449.475 614.432, 449.605 614.100, 449.740 610.498, 451.224 609.103, 455.056 609.103, 465.056 609.103, 475.056 609.103, 485.056 609.103, 493.261 610.498, 497.093 610.649, 497.177 611.015, 497.327 " />
            <path fill="none" stroke-width="4.0" stroke-linecap="butt" stroke-opacity="1.0" stroke="rgb(0, 0, 0)" stroke-linejoin="bevel" d=" M 610.498, 497.093 610.927, 497.008 611.923, 496.927 613.450, 496.852 615.451, 496.786 617.850, 496.731 620.554, 496.690 623.458, 496.665 626.445, 496.657 629.399, 496.665 632.203, 496.690 634.745, 496.731 636.927, 496.786 638.664, 496.852 639.891, 496.927 640.562, 497.008 640.655, 497.093 " />
            <path fill="none" stroke-width="4.0" stroke-linecap="butt" stroke-opacity="1.0" stroke="rgb(0, 0, 0)" stroke-linejoin="bevel" d=" M 640.562, 451.050 639.891, 450.881 638.664, 450.726 636.927, 450.589 634.745, 450.476 632.203, 450.392 629.399, 450.340 626.445, 450.323 623.458, 450.340 620.554, 450.392 617.850, 450.476 615.451, 450.589 613.450, 450.726 611.923, 450.881 610.927, 451.050 610.498, 451.224 " />
            <path fill="none" stroke-width="4.0" stroke-linecap="butt" stroke-opacity="1.0" stroke="rgb(0, 0, 0)" stroke-linejoin="bevel" d=" M 582.223, 497.327 582.791, 497.093 584.187, 493.261 584.187, 483.261 584.187, 473.261 584.187, 463.261 584.187, 455.056 582.791, 451.224 582.585, 451.050 579.027, 449.605 578.428, 449.475 577.414, 449.354 576.023, 449.249 574.307, 449.162 572.333, 449.097 570.178, 449.057 567.926, 449.044 565.667, 449.057 563.487, 449.097 561.474, 449.162 559.705, 449.249 558.248, 449.354 557.160, 449.475 556.482, 449.605 552.950, 451.050 552.635, 451.224 551.239, 455.056 551.239, 465.056 551.239, 475.056 551.239, 485.056 551.239, 493.261 552.635, 497.093 553.203, 497.327 " />
            <path fill="none" stroke-width="4.0" stroke-linecap="butt" stroke-opacity="1.0" stroke="rgb(0, 0, 0)" stroke-linejoin="bevel" d=" M 552.635, 497.093 552.950, 497.008 553.836, 496.927 555.261, 496.852 557.173, 496.786 559.499, 496.731 562.148, 496.690 565.018, 496.665 567.994, 496.657 570.960, 496.665 573.797, 496.690 576.394, 496.731 578.649, 496.786 580.476, 496.852 581.804, 496.927 582.585, 497.008 582.791, 497.093 " />
            <path fill="none" stroke-width="4.0" stroke-linecap="butt" stroke-opacity="1.0" stroke="rgb(0, 0, 0)" stroke-linejoin="bevel" d=" M 582.585, 451.050 581.804, 450.881 580.476, 450.726 578.649, 450.589 576.394, 450.476 573.797, 450.392 570.960, 450.340 567.994, 450.323 565.018, 450.340 562.148, 450.392 559.499, 450.476 557.173, 450.589 555.261, 450.726 553.836, 450.881 552.950, 451.050 " />
            <path fill="none" stroke-width="4.0" stroke-linecap="butt" stroke-opacity="1.0" stroke="rgb(0, 0, 0)" stroke-linejoin="bevel" d=" M 525.308, 497.327 525.876, 497.093 527.272, 493.261 527.272, 483.261 527.272, 473.261 527.272, 463.261 527.272, 455.056 525.876, 451.224 525.558, 451.050 522.027, 449.605 521.346, 449.475 520.256, 449.354 518.798, 449.249 517.027, 449.162 515.013, 449.097 512.833, 449.057 510.573, 449.044 508.321, 449.057 506.167, 449.097 504.194, 449.162 502.480, 449.249 501.090, 449.354 500.078, 449.475 499.482, 449.605 495.923, 451.050 495.720, 451.224 494.324, 455.056 494.324, 465.056 494.324, 475.056 494.324, 485.056 494.324, 493.261 495.720, 497.093 496.288, 497.327 " />
            <path fill="none" stroke-width="4.0" stroke-linecap="butt" stroke-opacity="1.0" stroke="rgb(0, 0, 0)" stroke-linejoin="bevel" d=" M 495.720, 497.093 495.923, 497.008 496.701, 496.927 498.026, 496.852 499.850, 496.786 502.104, 496.731 504.700, 496.690 507.536, 496.665 510.501, 496.657 513.478, 496.665 516.348, 496.690 518.999, 496.731 521.327, 496.786 523.241, 496.852 524.669, 496.927 525.558, 497.008 525.876, 497.093 " />
            <path fill="none" stroke-width="4.0" stroke-linecap="butt" stroke-opacity="1.0" stroke="rgb(0, 0, 0)" stroke-linejoin="bevel" d=" M 525.558, 451.050 524.669, 450.881 523.241, 450.726 521.327, 450.589 518.999, 450.476 516.348, 450.392 513.478, 450.340 510.501, 450.323 507.536, 450.340 504.700, 450.392 502.104, 450.476 499.850, 450.589 498.026, 450.726 496.701, 450.881 495.923, 451.050 " />
            <path fill="none" stroke-width="4.0" stroke-linecap="butt" stroke-opacity="1.0" stroke="rgb(0, 0, 0)" stroke-linejoin="bevel" d=" M 363.684, 837.363 365.763, 847.144 367.842, 856.926 369.509, 864.770 " />
            <path fill="none" stroke-width="4.0" stroke-linecap="butt" stroke-opacity="1.0" stroke="rgb(0, 0, 0)" stroke-linejoin="bevel" d=" M 373.681, 395.473 373.681, 385.473 373.681, 375.473 373.681, 365.473 373.681, 355.473 373.681, 345.473 373.681, 335.233 " />
            <path fill="none" stroke-width="4.0" stroke-linecap="butt" stroke-opacity="1.0" stroke="rgb(0, 0, 0)" stroke-linejoin="bevel" d=" M 373.681, 497.327 373.681, 487.327 373.681, 477.327 373.681, 467.327 373.681, 457.327 373.681, 447.327 373.681, 437.327 373.681, 432.442 " />
            <path fill="none" stroke-width="4.0" stroke-linecap="butt" stroke-opacity="1.0" stroke="rgb(0, 0, 0)" stroke-linejoin="bevel" d=" M 659.263, 837.363 660.358, 842.576 " />
            <path fill="none" stroke-width="4.0" stroke-linecap="butt" stroke-opacity="1.0" stroke="rgb(0, 0, 0)" stroke-linejoin="bevel" d=" M 663.265, 837.363 663.843, 840.118 664.835, 844.838 666.890, 854.625 668.837, 863.891 " />
            <path fill="none" stroke-width="4.0" stroke-linecap="butt" stroke-opacity="1.0" stroke="rgb(0, 0, 0)" stroke-linejoin="bevel" d=" M 706.319, 395.473 706.319, 385.473 706.319, 375.473 706.319, 365.473 706.319, 355.473 706.319, 345.473 706.319, 335.233 " />
            <path fill="none" stroke-width="4.0" stroke-linecap="butt" stroke-opacity="1.0" stroke="rgb(0, 0, 0)" stroke-linejoin="bevel" d=" M 706.319, 497.327 706.319, 487.327 706.319, 477.327 706.319, 467.327 706.319, 457.327 706.319, 447.327 706.319, 437.327 706.319, 432.442 " />
            <path fill="none" stroke-width="4.0" stroke-linecap="butt" stroke-opacity="1.0" stroke="rgb(0, 0, 0)" stroke-linejoin="bevel" d=" M 714.745, 497.327 706.319, 497.327 699.847, 497.327 697.088, 497.327 687.088, 497.327 677.088, 497.327 671.999, 497.327 670.662, 497.327 660.662, 497.327 650.662, 497.327 640.662, 497.327 640.086, 497.327 637.654, 497.327 627.654, 497.327 617.654, 497.327 612.565, 497.327 611.015, 497.327 601.015, 497.327 591.015, 497.327 582.223, 497.327 580.106, 497.327 570.106, 497.327 560.106, 497.327 555.017, 497.327 553.203, 497.327 543.203, 497.327 533.203, 497.327 525.308, 497.327 523.502, 497.327 513.502, 497.327 503.502, 497.327 498.413, 497.327 496.288, 497.327 486.288, 497.327 476.288, 497.327 466.288, 497.327 456.288, 497.327 446.288, 497.327 436.288, 497.327 426.288, 497.327 416.288, 497.327 411.639, 497.327 410.293, 497.327 400.293, 497.327 390.293, 497.327 385.204, 497.327 382.458, 497.327 373.681, 497.327 365.255, 497.327 " />
            <path fill="none" stroke-width="4.0" stroke-linecap="butt" stroke-opacity="1.0" stroke="rgb(0, 0, 0)" stroke-linejoin="bevel" d=" M 714.745, 395.473 706.319, 395.473 696.319, 395.473 686.319, 395.473 676.319, 395.473 666.319, 395.473 656.319, 395.473 646.319, 395.473 639.486, 395.473 629.486, 395.473 619.486, 395.473 609.486, 395.473 607.873, 395.473 597.873, 395.473 587.873, 395.473 583.519, 395.473 573.519, 395.473 563.519, 395.473 553.519, 395.473 551.906, 395.473 541.906, 395.473 531.906, 395.473 521.906, 395.473 511.906, 395.473 501.906, 395.473 491.906, 395.473 481.906, 395.473 471.906, 395.473 468.741, 395.473 458.741, 395.473 448.741, 395.473 438.741, 395.473 437.128, 395.473 427.128, 395.473 417.128, 395.473 412.841, 395.473 402.841, 395.473 392.841, 395.473 382.841, 395.473 381.161, 395.473 373.681, 395.473 365.255, 395.473 " />
            <path fill="none" stroke-width="4.0" stroke-linecap="butt" stroke-opacity="1.0" stroke="rgb(0, 0, 0)" stroke-linejoin="bevel" d=" M 714.745, 293.619 706.319, 293.619 696.319, 293.619 686.319, 293.619 676.319, 293.619 666.319, 293.619 656.319, 293.619 646.319, 293.619 642.955, 293.619 641.243, 293.619 631.243, 293.619 621.243, 293.619 614.366, 293.619 611.813, 293.619 601.813, 293.619 591.813, 293.619 581.813, 293.619 571.813, 293.619 561.813, 293.619 551.813, 293.619 541.813, 293.619 531.813, 293.619 522.931, 293.619 520.661, 293.619 510.661, 293.619 500.661, 293.619 493.784, 293.619 491.817, 293.619 481.817, 293.619 471.817, 293.619 461.817, 293.619 451.817, 293.619 441.817, 293.619 431.817, 293.619 421.817, 293.619 411.624, 293.619 408.692, 293.619 398.692, 293.619 388.692, 293.619 381.815, 293.619 380.366, 293.619 373.681, 293.619 365.255, 293.619 " />
        </g>
    </g>
</svg>
