<svg width="75" height="34" viewBox="0 0 75 34" fill="none" xmlns="http://www.w3.org/2000/svg">
<path d="M65.5511 24.2723L73.3201 24.2723L73.6101 24.0124L73.8881 23.4923L74.1451 22.7324L74.3711 21.7593L74.5571 20.6114L74.6951 19.3344L74.7801 17.9753L74.8081 16.5894L74.7801 15.2293L74.6951 13.9483L74.5571 12.7953L74.3711 11.8174L74.1451 11.0493L73.8881 10.5223L73.6101 10.2553L65.8331 10.2553C65.8331 10.2553 66.3632 14.9573 66.3081 17.6943C66.253 20.4313 65.5511 24.2723 65.5511 24.2723Z" fill="#c3ffef"/>
<path d="M2.65411 32.9663L4.82611 33.7653L5.36111 33.8083L15.3611 33.8083L25.3611 33.8083L35.3611 33.8083L42.6771 33.8083C42.6771 33.8083 40.1876 23.6602 40.3081 17.1943C40.4286 10.7284 43.2941 0.694335 43.2941 0.694335L33.2941 0.694334L23.2941 0.694334L13.2941 0.694333L5.8981 0.694333L5.36111 0.722348L2.65411 1.70834C2.65411 1.70834 0.394631 12.019 0.308105 17.9753C0.214402 24.4257 2.65411 32.9663 2.65411 32.9663Z" fill="#c3ffef"/>
<path d="M42.6771 33.8083L46.5241 32.4073L55.7191 28.4763L64.9141 24.5453L65.5511 24.2723C65.5511 24.2723 66.253 20.4313 66.3081 17.6943C66.3632 14.9573 65.8331 10.2553 65.8331 10.2553L56.6641 6.26535L47.4951 2.27435L47.0971 2.10135L43.2941 0.694335C43.2941 0.694335 40.4286 10.7284 40.3081 17.1943C40.1876 23.6602 42.6771 33.8083 42.6771 33.8083Z" fill="#417194"/>
</svg>
