<svg width="50" height="33" viewBox="0 0 50 33" fill="none" xmlns="http://www.w3.org/2000/svg">
<path d="M1.21701 30.983L1.45102 31.552L5.28302 32.947L15.283 32.947L25.283 32.947L35.283 32.947L43.488 32.947C43.488 32.947 42.5 22.9333 42.5 16.5C42.5 10.0667 43.488 -2.62793e-07 43.488 -2.62793e-07L33.488 -6.99906e-07L23.488 -1.13702e-06L13.488 -1.57413e-06L5.28302 -1.93279e-06L1.45102 1.39496L1.367 1.54596L1.21701 1.91199C1.21701 1.91199 -4.73112e-07 10.8235 -7.21238e-07 16.5C-9.69364e-07 22.1765 1.21701 30.983 1.21701 30.983Z" fill="#14212C"/>
<path d="M43.488 32.947L47.32 31.552L47.494 31.459L48.939 27.874L49.069 27.358L49.19 26.422L49.295 25.098L49.382 23.438L49.447 21.506L49.487 19.376L49.5 17.133L49.487 14.865L49.447 12.66L49.382 10.605L49.295 8.77997L49.19 7.25598L49.069 6.09094L48.939 5.32898L48.804 4.99695L47.32 1.39496L43.488 -2.62793e-07C43.488 -2.62793e-07 42.5 10.0667 42.5 16.5C42.5 22.9333 43.488 32.947 43.488 32.947Z" fill="#E1E1E1"/>
</svg>
